<svg width="16" height="16" viewBox="0 0 16 16" fill="none" xmlns="http://www.w3.org/2000/svg">
<path d="M4.81111 4.11118C4.81111 2.34917 6.23799 0.92229 8 0.92229C9.76201 0.92229 11.1889 2.34917 11.1889 4.11118C11.1889 5.87319 9.76201 7.30007 8 7.30007C6.23799 7.30007 4.81111 5.87319 4.81111 4.11118ZM0.922223 12.8612C0.922223 12.4718 1.11175 12.0788 1.54722 11.6769C1.98745 11.2706 2.63072 10.9041 3.39798 10.5967C4.93363 9.98156 6.78959 9.67229 8 9.67229C9.21041 9.67229 11.0664 9.98156 12.602 10.5967C13.3693 10.9041 14.0126 11.2706 14.4528 11.6769C14.8883 12.0788 15.0778 12.4718 15.0778 12.8612V15.0778H0.922223V12.8612Z" stroke="#C2CFE0" stroke-width="1.4"/>
</svg>
